<svg id="svg" xmlns="http://www.w3.org/2000/svg" xmlns:xlink="http://www.w3.org/1999/xlink" width="400" height="400" viewBox="0, 0, 400,400"><g id="svgg"><path id="path0" d="M107.149 106.551 C 102.227 111.474,98.200 115.591,98.200 115.700 C 98.200 115.810,104.522 122.222,112.250 129.950 L 126.299 144.000 107.200 163.100 L 88.101 182.200 73.951 168.051 L 59.800 153.901 50.800 162.900 C 45.850 167.849,41.800 171.988,41.800 172.099 C 41.800 172.209,48.122 178.622,55.849 186.349 L 69.899 200.400 55.849 214.451 C 48.122 222.178,41.800 228.591,41.800 228.701 C 41.800 228.812,45.850 232.951,50.800 237.900 L 59.800 246.899 73.951 232.749 L 88.101 218.600 107.200 237.700 L 126.299 256.800 112.250 270.850 C 104.522 278.578,98.200 284.991,98.200 285.101 C 98.200 285.212,102.250 289.351,107.200 294.300 L 116.200 303.299 130.351 289.149 L 144.501 275.000 158.650 289.150 L 172.799 303.299 181.800 294.300 C 186.750 289.351,190.800 285.212,190.800 285.101 C 190.800 284.991,184.478 278.578,176.750 270.850 L 162.701 256.800 181.350 238.150 L 200.000 219.500 218.650 238.150 L 237.299 256.800 223.150 270.950 L 209.000 285.101 218.100 294.200 L 227.200 303.299 241.350 289.149 L 255.501 275.000 269.650 289.150 L 283.800 303.300 292.850 294.250 L 301.900 285.200 287.750 271.050 L 273.600 256.901 292.750 237.750 L 311.899 218.600 326.049 232.749 L 340.200 246.899 349.200 237.900 C 354.150 232.951,358.200 228.812,358.200 228.701 C 358.200 228.591,351.878 222.178,344.151 214.451 L 330.101 200.400 344.151 186.349 C 351.878 178.622,358.200 172.209,358.200 172.099 C 358.200 171.988,354.150 167.849,349.200 162.900 L 340.200 153.901 326.049 168.051 L 311.899 182.200 292.800 163.100 L 273.701 144.000 287.750 129.950 C 295.478 122.222,301.800 115.809,301.800 115.699 C 301.800 115.588,297.750 111.449,292.800 106.500 L 283.800 97.501 269.749 111.551 C 262.022 119.278,255.609 125.600,255.500 125.600 C 255.391 125.600,248.978 119.278,241.251 111.551 L 227.200 97.501 218.100 106.600 L 209.000 115.699 223.150 129.850 L 237.299 144.000 218.650 162.650 L 200.000 181.300 181.350 162.650 L 162.701 144.000 176.750 129.950 C 184.478 122.222,190.800 115.809,190.800 115.699 C 190.800 115.588,186.750 111.449,181.800 106.500 L 172.800 97.501 158.749 111.551 C 151.022 119.278,144.609 125.600,144.499 125.600 C 144.389 125.600,137.999 119.300,130.300 111.600 C 122.601 103.900,116.255 97.600,116.200 97.600 C 116.144 97.600,112.071 101.628,107.149 106.551 M286.131 113.039 C 287.846 114.731,288.400 115.403,288.400 115.788 C 288.400 116.198,285.649 119.050,274.550 130.150 L 260.701 144.000 286.250 169.550 L 311.800 195.099 325.750 181.150 C 333.423 173.477,339.827 167.200,339.981 167.200 C 340.521 167.200,344.800 171.630,344.800 172.188 C 344.800 172.598,342.049 175.450,330.951 186.549 L 317.102 200.399 331.051 214.353 C 338.723 222.027,345.000 228.439,345.000 228.600 C 345.000 229.056,340.371 233.600,339.906 233.600 C 339.644 233.600,334.732 228.827,325.602 219.701 L 311.698 205.802 286.200 231.300 L 260.702 256.798 274.651 270.753 C 282.323 278.427,288.600 284.842,288.600 285.006 C 288.600 285.460,283.964 290.000,283.500 290.000 C 283.246 290.000,278.187 285.082,269.202 276.101 L 255.298 262.201 241.499 276.001 C 230.908 286.593,227.590 289.800,227.222 289.800 C 226.708 289.800,222.904 286.241,222.389 285.280 C 222.126 284.788,222.356 284.545,236.061 270.839 L 250.000 256.899 224.650 231.564 L 199.300 206.230 182.300 223.764 C 172.950 233.407,161.813 244.808,157.552 249.099 L 149.804 256.900 163.702 270.803 C 172.523 279.627,177.600 284.848,177.600 285.094 C 177.600 285.690,173.202 290.000,172.594 290.000 C 172.216 290.000,169.005 286.899,158.254 276.153 L 144.401 262.305 130.545 276.153 C 122.923 283.769,116.557 290.000,116.397 290.000 C 115.940 290.000,111.400 285.369,111.400 284.903 C 111.400 284.635,116.049 279.850,125.200 270.700 L 139.000 256.901 113.451 231.351 L 87.901 205.800 74.100 219.600 C 65.118 228.581,60.161 233.400,59.903 233.400 C 59.365 233.400,55.000 229.040,55.000 228.503 C 55.000 228.235,59.646 223.453,68.799 214.301 L 82.599 200.502 68.799 186.698 C 57.783 175.677,55.000 172.791,55.000 172.386 C 55.000 171.769,59.308 167.400,59.916 167.400 C 60.149 167.400,65.601 172.706,74.147 181.249 L 88.002 195.098 113.500 169.600 L 138.998 144.102 125.199 130.298 C 114.183 119.277,111.400 116.391,111.400 115.986 C 111.400 115.369,115.708 111.000,116.316 111.000 C 116.549 111.000,122.001 116.306,130.547 124.849 L 144.401 138.698 158.251 124.849 C 169.350 113.751,172.202 111.000,172.612 111.000 C 173.170 111.000,177.600 115.279,177.600 115.819 C 177.600 115.973,171.324 122.376,163.653 130.047 L 149.706 143.995 157.317 151.648 C 161.504 155.856,166.410 160.830,168.220 162.700 C 170.030 164.570,177.757 172.519,185.391 180.364 L 199.271 194.629 224.585 169.315 L 249.898 144.002 236.149 130.248 C 225.174 119.268,222.400 116.391,222.400 115.986 C 222.400 115.369,226.708 111.000,227.316 111.000 C 227.549 111.000,232.974 116.278,241.497 124.798 L 255.299 138.597 269.203 124.698 C 277.781 116.124,283.251 110.800,283.484 110.800 C 283.696 110.800,284.855 111.780,286.131 113.039 " stroke="none" fill="#000000" fill-rule="evenodd"></path></g></svg>